<svg version="1.0" xmlns="http://www.w3.org/2000/svg" width="800" height="800" viewBox="0 0 600 600" fill="#7eb6ad"><path d="M239.5 72.1c-24.6 1.6-50.4 5.4-61.2 9-6.9 2.2-9.8 5.3-11 11.1-.3 1.9-1.9 4.4-3.7 5.9-3.1 2.7-3.1 2.7-3.3 17-.2 15.7.6 20.1 4.3 22.6 1.4.9 2.4 2.5 2.4 3.8s-6.5 15.3-14.4 31.2c-20.6 41-24.9 54.7-24.8 79.3.1 20.5 3.8 31.9 18 56 15.1 25.5 21.8 49.7 25.3 90.5.6 7.7 1.4 37.2 1.8 65.6.5 41.6.9 51.9 2 53.2 1.1 1.4 3.2 1.7 10.6 1.7 6.2 0 9.6-.4 10.3-1.3.6-.8 1.2-26.8 1.6-72.7.5-70.8 1.2-86.4 4.2-96.9 2.1-7.3 6.8-12.1 11.9-12.1 5.6 0 14.4 5.2 22.4 13.3 20.2 20.6 32.9 43.4 49.3 88.6 7.7 21.4 11.7 28.9 18.4 35.1 9.5 8.6 17.3 10.4 51.2 12.1 33.1 1.7 92.7-.8 123.2-5.2 8.2-1.2 11.5-3.2 12.5-7.9 1.4-6.6-4.2-13.1-16-18.5-10.4-4.8-67.5-26.6-71.2-27.2-2.2-.4-5.4.3-10 2.2-26.6 10.8-49.2 8.9-63.9-5.2-7.7-7.4-13.3-16.1-24.9-38.3-22.8-43.6-38.4-64.4-68.7-91.6-20-17.9-33-30.6-38.3-37.4-5.5-7.1-10.9-17.9-13.6-27.2-3.1-10.7-3.7-32-1.4-47.6 1-6.4 1.9-11.8 2-12 .1-.1 8.2 2.5 18 5.8 20.4 6.9 25 7.4 30.7 3.5 2.1-1.4 4.2-3.9 4.9-6 .7-2 1.8-3.4 2.4-3.3.5.2 6.9 2.3 14.1 4.7 12.8 4.3 13.3 4.4 15.8 2.8 3.2-2.2 5.1-6.6 7.3-17.2 1.4-6.9 1.5-8.7.4-11.3-1.2-3-2.3-3.5-15.6-7.8-14.3-4.7-14.3-4.7-15-9-.4-2.9-1.7-5.5-4.3-8.4-3.5-3.9-4.9-4.5-24.2-10.9-16.8-5.6-20.6-7.1-20.8-8.7-.6-3.9 2.7-5.2 18.5-7.3 50.6-6.8 101.5-4.1 133 7 34.9 12.3 56.8 33.9 64.3 63.3 2.6 10.1 2.7 28.6.4 38.4-2.4 9.6-8.6 22.6-15 30.8-9.4 12.4-26.6 25.1-42.8 31.7-9 3.6-11.5 6.3-9.8 10.2 1.5 3.3 4.6 3.9 13.9 2.5 24.9-3.8 47.1-14.8 64.4-32 17.5-17.4 26.6-36.2 28.5-59.2 1.4-17.2-3.8-38.1-13.2-54.1-9.1-15.2-28.8-32.9-46.9-42C360 76 300.7 68 239.5 72.1m66.9 5c-16.2-1.3-56.9-1.2-72.9 0-14.6 1.2-39.5 4.6-47 6.5-8.6 2.2-13.3 5.1-14 8.6-.4 1.6-2.2 4.8-4 7.2-3.3 4.3-3.3 4.3-3.4 17.5-.2 13.1-.2 13.1 2.9 17.5 3.5 5.2 3.8 9.2 1 15.4-1 2.3-2 4.6-2 5-.1.4-2.1 4.3-4.5 8.7-7.4 13.7-18.2 35.7-21.4 43.6-10.1 25.7-11.6 49.9-4.3 72.4 1.4 4.4 2.5 8.3 2.4 8.7-.1.5.2.8.8.8.5 0 1 .4 1 1 0 .5 2.5 5.1 5.6 10.1 25 41.2 31.3 77.3 31.4 178.5 0 25.4.3 32.4 1.4 33.9 1.8 2.4 10.5 2.3 12.4-.2.9-1.3 1.2-15.5 1.2-62.7.1-77.4.7-90.3 4.5-103.4 1.5-4.9 6.3-11.1 10.2-13.1 5.4-2.8 16-.1 23.8 6 8 6.4 22.2 22.6 25.9 29.7.9 1.7 2.1 3.6 2.9 4.4 3.5 3.6 15.5 27.3 21.1 41.8 2 5.2 4.8 12.4 6.1 16 10.8 28.8 12.3 32 18.5 38.2 2.1 2 5 4.3 6.6 5.1 9.3 4.7 29.8 6.7 69.3 6.7 28.5 0 48.7-.9 77.1-3.6 20.8-1.9 24.8-2.9 25.6-6s-1.1-7.6-3.9-9.4c-3.7-2.3-19.7-10-20.8-10-.6 0-5-1.5-9.8-3.4-4.7-1.9-14.9-5.9-22.6-8.9s-16.6-6.3-19.9-7.3c-5.8-1.8-5.8-1.8-15 1.4-11.8 4.2-20.2 5.9-30.2 6.1-13.4.3-22.8-2.8-33.5-11.3-4.8-3.8-14.9-15.3-14.9-17 0-.3-1.2-2.2-2.6-4.3s-5.5-9.4-9-16.3c-17.3-34-30.5-54.4-46.4-71.3-6.8-7.4-22-22.6-22-22.1 0 .2-1.3-.9-2.8-2.4-1.6-1.5-6.7-5.9-11.3-9.9-14.9-12.7-26.3-25.5-32.4-36.3-3.5-6.2-7.9-17-6.9-17 .4 0 .2-.6-.4-1.3s-1.9-5.8-2.8-11.3c-2.2-13.7-1-36.7 2.6-47.4 1.4-4.1 1.6-5.7.7-6.2-.7-.4-.9-.8-.5-.8.3 0-.9-1.5-2.7-3.4-5.2-5.4-5.5-11.6-1.5-25 1-3.4 2.4-8.8 3-12.1.7-3.3 1.8-7.2 2.6-8.6 1.8-3.6 8.1-8.9 10.4-8.9 1.4 0 2-.7 2-2.1 0-3.7 3.1-8.7 6.4-10.3s11.6-2.8 33.6-5.1c15.1-1.6 68.1-1.3 76 .4 2.5.5 6.8 1.2 9.5 1.5 10.7 1.1 28.4 5.8 40.5 10.6 12.5 4.9 28.3 15.3 36.6 24.1 29.7 31.4 32.6 77.3 7.1 111.4-5.5 7.3-20.8 21.2-26.7 24.2-1.9 1-3.7 2.1-4 2.4-.3.4-4.2 2.5-8.7 4.7-11.7 5.9-12.2 7.6-1.6 6.1 9.1-1.3 24.3-6.4 34.1-11.6 4.8-2.6 8.9-5 9-5.5.2-.4.8-.6 1.3-.2.5.3.9.1.9-.4s1.8-2.2 3.9-3.7c5.3-3.6 14.3-12.6 19.9-19.9 15.6-20.2 21.2-48.1 14.6-72.9-4.3-16.3-17.3-36.6-30.3-47.2-3.3-2.8-6.1-5.3-6.1-5.8 0-.4-.6-.7-1.3-.7s-2.2-.8-3.3-1.8C402 102 385.9 94 376 90.5c-6.8-2.4-18.5-5.9-23.5-7.1-8-1.8-34.4-5.5-46.1-6.3m-89.6 40.5c-10.8-3.7-20.6-6.6-21.9-6.6-3.3.1-7.3 2.4-8.7 5.2-.6 1.3-3 9.8-5.1 19.1-4.2 17.8-4.2 21.5-.2 25.1 2.4 2.2 39.6 14.6 43.9 14.6 6.4 0 8.3-3.3 13.1-22.7 4.7-18.7 4.8-22.4.8-26.1-1.3-1.2-10.7-4.9-21.9-8.6m41.3 26.3c-6.3-2.2-11.6-3.9-11.7-3.9-.5 0-1.7 4.2-4.1 13.4-1.7 6.9-2.2 10.1-1.4 10.9 1 1 11.4 4.5 20.7 6.9 2.3.6 4.9.8 5.9.5 2.3-1 5.3-8.3 6-15.4.9-7.3 1.6-6.7-15.4-12.4"/><path d="M193.1 121.7c-.5 1-2.4 8.2-4.2 16.1-2.4 10.2-3 14.7-2.3 15.9 1.1 1.8 34.9 13 37.6 12.5 2-.4 2.7-2.5 6.7-19.1 2.2-8.7 2.8-12.9 2.1-14.1-1-1.9-32.4-13-36.7-13-1.2 0-2.6.8-3.2 1.7m19.9 7.9c-6.3-2.1-11.9-3.9-12.5-4.1-1.5-.5-4 .8-4.4 2.5-.2.8-1.5 5.9-2.9 11.2-1.9 7.7-2.2 10.1-1.3 11.2 1.3 1.5 9.8 4.9 21.5 8.6 6.1 1.9 7.1 2 8.4.6 2.2-2.2.9-3.9-4.5-5.8-4.9-1.8-8.9-5-9.4-7.8-.6-3.6 4.1-8.9 7.6-8.5 3 .3 8.2 1.9 9.3 2.8 1 .8 1.6.7 2.3-.4 2.5-3.9.1-5.6-14.1-10.3m7.5 13.5c-6.6-2.5-6.9-2.5-8.5-.6-2.1 2.6-.2 4.9 5.6 6.8 6 1.9 8.4 1.2 8.4-2.4 0-1.2-1.6-2.4-5.5-3.8m79.1 344.1c1.2 6.8 2.7 15.5 3.4 19.5 2 12.2 7.8 17.7 21.6 20.2 11.4 2.2 46.7 3.2 72.7 2.1 36.3-1.5 62.4-4.2 75-7.7 8.9-2.5 9.8-3.9 12.9-21 1.5-8.1 2.5-14.9 2.4-15.1-.2-.1-8.4.6-18.2 1.7-52.2 5.9-119.9 6.6-145.8 1.6-9.8-1.8-17.2-5.2-21.9-9.9-2-2-3.8-3.6-4-3.6s.7 5.5 1.9 12.2m11.9 2.7c-5.9-2.2-5.2-2.1-6-.9-.7 1.2.1 7.8 2.2 17.5 2.4 10.8 6.7 14.1 21.8 16.6 12.3 2.1 77.6 1.8 101.5-.5 22.6-2.1 21.4-1.9 32.8-4.1 12.7-2.4 13.7-3.3 16.4-16.2 1.2-5.7 1.8-10.6 1.4-11-.3-.4-7.1-.1-14.9.6-34.6 3.3-49.4 3.9-88.7 3.6-22.3-.1-42.7-.5-45.5-.9-9-1.2-15.9-2.8-21-4.7"/></svg>